### 在 Ubuntu 上安装 Sox

1. 打开终端并运行以下命令安装 Sox 和相关插件：

   ```bash
   sudo apt update
   sudo apt install sox libsox-fmt-all
   ```

   - `sox` 是主要的音频工具。
   - `libsox-fmt-all` 安装所有常用的音频格式支持（如 MP3、FLAC 等）。

2. 验证安装：
   ```bash
   sox --version
   ```

   如果正确安装，您会看到类似以下输出：
   ```
   SoX v14.4.2
   ```

---

### 使用 Sox 查看音频信息（采样率、位深等）

1. 运行以下命令查看音频文件信息：
   ```bash
   sox --i <音频文件路径>
   ```
   示例：
   ```bash
   sox --i example.wav
   ```

   输出示例：
   ```
   Input File     : 'example.wav'
   Channels       : 2
   Sample Rate    : 44100
   Precision      : 16-bit
   Duration       : 00:01:30.12 = 3965280 samples ~ 6739.62 CDDA sectors
   File Size      : 15.9M
   Bit Rate       : 1.41M
   Sample Encoding: 16-bit Signed Integer PCM
   ```

   关键字段解释：
   - **Sample Rate**：采样率（单位 Hz，例如 44100 表示 44.1kHz）。
   - **Precision**：位深（如 16-bit）。
   - **Sample Encoding**：样本编码格式。

2. 如果需要更简洁的信息，可以用 `grep` 过滤：
   ```bash
   sox --i example.wav | grep -E "Sample Rate|Precision"
   ```

   示例输出：
   ```
   Sample Rate    : 44100
   Precision      : 16-bit
   ```

---

### 其他常用命令

- **列出支持的格式**：
  ```bash
  sox --help
  ```

- **转换音频采样率或位深**：
  将音频转换为 16kHz、16-bit：
  ```bash
  sox input.wav -r 16000 -b 16 output.wav
  ```
  参数说明：
  - `-r 16000`：设置采样率为 16kHz。
  - `-b 16`：设置位深为 16-bit。

- **播放音频文件**（可选）：
  ```bash
  play example.wav
  ```
  

使用 `sox` 可以轻松地将 WAV 文件转换为 16kHz 采样率、16-bit 位深和单声道格式。以下是操作步骤和命令：

### 命令格式
```bash
sox input.wav -r 16000 -b 16 -c 1 output.wav
```

### 参数解释
- `input.wav`：输入的 WAV 文件路径。
- `-r 16000`：将采样率设置为 16kHz。
- `-b 16`：将位深设置为 16-bit。
- `-c 1`：将音频转换为单声道（单通道）。
- `output.wav`：输出的 WAV 文件路径。

### 示例
假设输入文件为 `example.wav`，输出文件为 `example_16k_16bit_mono.wav`，运行以下命令：
```bash
sox example.wav -r 16000 -b 16 -c 1 example_16k_16bit_mono.wav
```

### 验证结果
转换完成后，可以用 `sox` 检查输出文件的属性：
```bash
sox --i example_16k_16bit_mono.wav
```

输出示例：
```
Input File     : 'example_16k_16bit_mono.wav'
Channels       : 1
Sample Rate    : 16000
Precision      : 16-bit
Duration       : 00:01:00.00 = 960000 samples ~ 1500 CDDA sectors
File Size      : 1.92M
Bit Rate       : 256k
Sample Encoding: 16-bit Signed Integer PCM
```

### 如果需要保留原文件名
可以使用 Bash 动态生成输出文件名。例如：
```bash
sox example.wav -r 16000 -b 16 -c 1 ${example%.*}_16k_16bit_mono.wav
```

这样生成的输出文件名将基于输入文件名自动加后缀，避免覆盖原文件。